<?xml version="1.0" encoding="utf-8"?>
<!-- Generator: Adobe Illustrator 24.0.2, SVG Export Plug-In . SVG Version: 6.00 Build 0)  -->
<svg version="1.1" id="Layer_1" xmlns="http://www.w3.org/2000/svg" xmlns:xlink="http://www.w3.org/1999/xlink" x="0px" y="0px"
	 viewBox="0 0 512 512" style="enable-background:new 0 0 512 512;" xml:space="preserve">
<style type="text/css">
	.st0{fill:#C1E8F7;}
	.st1{fill:none;}
	.st2{fill:#906A5D;}
	.st3{fill:#FFDDCA;}
	.st4{fill:#FFE6D3;}
	.st5{fill:#292929;}
	.st6{fill:#161413;}
	.st7{fill:#F4F4F4;}
	.st8{fill:#8A1116;}
	.st9{fill:#EAEAEA;}
	.st10{fill:#212020;}
	.st11{fill:#090706;}
</style>
<circle id="XMLID_8242_" class="st0" cx="256.0887" cy="255.7101" r="251.1834"/>
<g id="XMLID_7515_">
	<path id="XMLID_7538_" class="st1" d="M325.9628,245.8528c3.271-7.9703,4.9272-14.2645,5.2745-15.9315
		c-0.3052-0.102-0.5719-0.2462-0.7224-0.4721c-0.5125-0.7736,1.0208-8.8895,0.3194-9.4659
		c-0.0829-0.0676-0.1748-0.1094-0.2719-0.1386c-0.9174,2.8799-2.5994,5.2417-4.5697,6.9087
		C326.0192,232.989,326.0016,239.3927,325.9628,245.8528z"/>
	<path id="XMLID_7537_" class="st2" d="M314.6611,229.9395c-3.724-2.6591-3.591,34.9832-19.0206,49.8804
		c-1.1071,1.069-2.2381,2.1138-3.3942,3.1298c-1.1673,1.0268-2.4063,1.9681-3.6277,2.9311
		c0.0034,0.5143,0.0108,1.0414,0.0228,1.5848c14.2279-4.1637,24.2645-16.7686,30.5009-27.6075
		c2.7906-4.8495,5.0403-9.6702,6.8206-14.0053c0.0388-6.4601,0.0564-12.8638,0.0299-19.0994
		c-1.1908,1.0067-2.4425,1.7399-3.6885,2.1776C320.1519,231.1452,317.5936,231.9113,314.6611,229.9395z"/>
	<path id="XMLID_7536_" class="st2" d="M194.7632,330.1545c-0.3978,0.1987-1.5793,0.9009-2.7166,2.6812
		C192.8324,332.0659,193.7352,331.1851,194.7632,330.1545z"/>
	<path id="XMLID_7535_" class="st2" d="M288.7154,289.4572c0.3627,8.2732,2.0271,19.1558,8.7808,29.0449
		c2.2228-1.9752,3.4551-2.4238,4.2742-1.0376c4.9944,8.4514,10.2189,12.9508,13.0988,15.8326
		c-1.4605-2.5276-3.1189-3.2115-3.1189-3.2115s3.5731-1.3861,9.7587,3.8626c1.4373,1.2203,3.9605,2.9348,6.7178,5.2275
		c-3.2325-16.0757-2.5594-52.5324-2.2968-88.433c-1.472,3.2571-3.1653,6.657-5.1061,10.0329
		C311.8948,276.3073,300.9232,286.0559,288.7154,289.4572z"/>
	<path id="XMLID_7534_" class="st2" d="M194.8491,330.0671c2.8343-2.847,6.3921-6.7794,9.8342-12.6027
		c0.8348-1.4138,2.0936-0.9305,4.4009,1.1471c7.8466-11.4156,8.8985-24.1861,8.9605-32.7237
		c-2.4328-1.9132-4.7957-3.9175-7.0222-6.0679c-15.4292-14.8972-15.2966-52.5395-19.021-49.8804
		c-2.887,1.9408-5.4127,1.2274-7.5437-0.908c-0.7646-0.2372-1.53-0.5894-2.2994-1.0545
		c-0.1356,41.1007,1.6125,89.3194-1.9502,109.7612c2.0365-1.5867,3.8245-2.838,4.9458-3.7902
		C191.0403,328.9544,194.5215,329.9577,194.8491,330.0671z"/>
	<path id="XMLID_7533_" class="st3" d="M285.4926,288.2317c1.0716-0.208,2.1209-0.465,3.1488-0.7661
		c-0.012-0.5435-0.0194-1.0705-0.0228-1.5848C287.5925,286.6887,286.5586,287.4764,285.4926,288.2317z"/>
	<path id="XMLID_7532_" class="st3" d="M252.7898,358.1069c0.2555,0.1953,0.3616,0.4434,0.437,0.7022
		c0.0751-0.2589,0.1815-0.5069,0.4366-0.7022c26.9217-20.6148,38.4065-34.7845,43.8327-39.6048
		c-6.7537-9.889-8.4181-20.7717-8.7808-29.0449c-2.2299,0.6201-4.5013,1.0212-6.8094,1.2147
		c-0.66,2.8578-3.5814,8.0905-13.4816,7.9886c-2.066-0.022-3.7696-0.2757-5.1984-0.6806c-1.4982,0.2809-3.002,0.5382-4.5196,0.6914
		c-4.579,0.465-9.2813,0.3227-13.8297-0.3974c-3.7345-0.5928-7.3999-1.5905-10.9189-2.9729
		c-3.9496-1.5524-7.7013-3.5768-11.2296-5.9293c-1.62-1.0798-3.1537-2.28-4.6836-3.4839
		c-0.062,8.5377-1.1138,21.3081-8.9605,32.7237C214.5637,323.5432,226.0832,337.656,252.7898,358.1069z"/>
	<path id="XMLID_7531_" class="st3" d="M253.2268,359.453c-0.0075,0.049-0.0157,0.0982-0.0269,0.1494h0.0538
		C253.2421,359.5513,253.2339,359.502,253.2268,359.453z"/>
	<path id="XMLID_7530_" class="st4" d="M233.9578,295.301c3.519,1.3824,7.1844,2.3801,10.9189,2.9729
		c4.5484,0.7202,9.2507,0.8625,13.8297,0.3974c1.5176-0.1532,3.0214-0.4105,4.5196-0.6914
		c-6.5968-1.8658-7.0562-7.0656-7.2269-8.8107c0.2514-2.1212,1.0164-9.3545,12.6191-9.2343
		c10.539,0.1094,13.0472,6.097,13.4035,8.7872c1.1818-0.1076,2.339-0.2697,3.4708-0.4904c1.066-0.7553,2.0999-1.543,3.126-2.351
		c1.2214-0.963,2.4604-1.9042,3.6277-2.9311c1.1561-1.016,2.2871-2.0607,3.3942-3.1298
		c15.4296-14.8972,15.2966-52.5395,19.0206-49.8804c2.9326,1.9718,5.4908,1.2057,7.6431-1.0085
		c-1.7963,0.6313-3.5287,0.6895-4.8095-0.102c-2.1011-1.3025,0.0822-11.8295,1.5882-27.9579
		c-0.2286,0.0728-0.4538,0.1625-0.6701,0.3011c-2.9262,1.862-6.5759-23.2048-20.6749-34.9103
		c-14.0994-11.7055-15.2383-19.6265-15.2383-19.6265c-14.0998,1.5976-27.8985,6.7025-51.1429,25.1965
		c-18.4043,14.6436-34.8151,29.2454-42.2325,31.2023c-0.6731,0.1771-1.1351-0.5543-1.6973-1.5595
		c1.5031,15.7874,3.6068,26.0683,1.5322,27.3543c-1.2072,0.7478-2.8179,0.7276-4.5013,0.2024
		c2.131,2.1354,4.6567,2.8489,7.5437,0.908c3.7244-2.6591,3.5918,34.9832,19.021,49.8804c2.2266,2.1504,4.5895,4.1547,7.0222,6.0679
		c1.53,1.2039,3.0636,2.404,4.6836,3.4839C226.2565,291.7242,230.0082,293.7486,233.9578,295.301z"/>
	<path id="XMLID_7529_" class="st2" d="M181.5968,173.4257c0.7004-13.7789,13.3505-63.7871,71.63-63.7871
		c58.2791,0,70.9292,50.0082,71.6296,63.7871c0.4539,8.9317-0.4322,14.0912,0.2884,17.1862
		c0.2835-3.0039,0.4505-6.9012,0.4505-12.0518c0-26.3383-10.6951-53.4719-27.934-57.9893
		c-8.2915-2.1724-9.3583-10.2263-27.7936-15.7474c-29.4531-8.82-62.7012,3.4088-79.6794,31.704
		c-11.8882,19.8106-12.4963,47.5459-11.2625,57.1851C183.1115,191.5057,180.9338,186.4736,181.5968,173.4257z"/>
	<path id="XMLID_7528_" class="st2" d="M189.1241,203.0342c7.4174-1.9569,23.8282-16.5587,42.2325-31.2023
		c23.2444-18.4939,37.0432-23.5989,51.1429-25.1965c0,0,1.1389,7.921,15.2383,19.6265
		c14.099,11.7055,17.7487,36.7723,20.6749,34.9103c0.2163-0.1386,0.4415-0.2282,0.6701-0.3011
		c0.1543-1.6562,0.3048-3.3542,0.44-5.1251c1.4474-19.0172,1.2561-25.2312-0.6148-32.138
		c-14.3859-53.0976-65.6812-49.3168-65.6812-49.3168s-49.5192-4.6526-65.4426,48.4872c-2.1119,7.0473-2.3013,13.9504-0.8535,32.9676
		c0.1513,1.9864,0.3209,3.8869,0.496,5.7287C187.989,202.4799,188.451,203.2112,189.1241,203.0342z"/>
	<path id="XMLID_7527_" class="st5" d="M188.959,228.829c2.0746-1.2861-0.0291-11.5669-1.5322-27.3543
		c-0.1752-1.8418-0.3448-3.7423-0.496-5.7287c-1.4478-19.0172-1.2584-25.9203,0.8535-32.9676
		c15.9233-53.1398,65.4426-48.4872,65.4426-48.4872s51.2953-3.7808,65.6812,49.3168c1.871,6.9068,2.0622,13.1208,0.6148,32.138
		c-0.1352,1.7709-0.2858,3.4689-0.44,5.1251c-1.506,16.1284-3.6893,26.6554-1.5882,27.9579
		c1.2808,0.7915,3.0132,0.7332,4.8095,0.102c1.2461-0.4378,2.4977-1.171,3.6885-2.1776c1.9703-1.667,3.6523-4.0288,4.5697-6.9087
		c-0.7276-0.2226-1.8075,0.4397-2.4148-0.8318c-0.6884-1.4407-0.3272-7.9228,0.2491-9.3179
		c0.576-1.3932,1.2065-2.0518,3.4218-1.6577c0.1173,0.0217,0.2312,0.0837,0.3481,0.1203
		c0.2592-6.4948-0.5371-12.7469-3.9552-14.0639c-1.8333-0.7056-2.6759-1.8037-3.0667-3.4816
		c-0.7205-3.095,0.1655-8.2545-0.2884-17.1862c-0.7003-13.7789-13.3505-63.7871-71.6296-63.7871
		c-58.2795,0-70.9296,50.0082-71.63,63.7871c-0.663,13.0479,1.5146,18.0801-2.6711,20.2868
		c-0.2342,0.124-0.4075,0.2753-0.6839,0.381c-5.2137,2.0099-4.3448,15.5009-2.8963,23.8271
		c0.8064,4.6362,3.7154,8.1869,6.8127,10.0564c0.7695,0.465,1.5348,0.8173,2.2994,1.0545
		C186.1411,229.5566,187.7518,229.5768,188.959,228.829z"/>
	<path id="XMLID_7526_" class="st6" d="M328.3967,209.6949c-0.5764,1.3951-0.9376,7.8772-0.2491,9.3179
		c0.6074,1.2715,1.6872,0.6092,2.4148,0.8318c0.0971,0.0291,0.189,0.071,0.2719,0.1386c0.7015,0.5764-0.8318,8.6923-0.3194,9.4659
		c0.1505,0.226,0.4172,0.3702,0.7224,0.4721c-0.3474,1.667-2.0036,7.9613-5.2745,15.9315
		c-1.7802,4.3351-4.0299,9.1558-6.8206,14.0053c-6.2364,10.8389-16.2729,23.4439-30.5009,27.6075
		c-1.0279,0.3011-2.0772,0.5581-3.1488,0.7661c-1.1318,0.2208-2.289,0.3829-3.4708,0.4904
		c-0.3563-2.6901-2.8646-8.6777-13.4035-8.7872c-11.6028-0.1203-12.3678,7.113-12.6191,9.2343
		c0.1707,1.7451,0.6301,6.9449,7.2269,8.8107c1.4287,0.4049,3.1324,0.6585,5.1984,0.6806
		c9.9002,0.102,12.8216-5.1307,13.4816-7.9886c2.308-0.1935,4.5794-0.5947,6.8094-1.2147
		c12.2079-3.4013,23.1794-13.1499,32.1085-28.6818c1.9408-3.3759,3.634-6.7757,5.1061-10.0329
		c4.6818-10.3634,7.0264-19.1999,7.2617-20.8905c0.127-0.0512,0.2745-0.0822,0.3769-0.1513
		c0.8139-0.5491,1.4067-5.8804,1.9102-11.9864c0.4751-5.7691-1.3275-8.9059-3.312-9.557c-0.1169-0.0366-0.2308-0.0986-0.3481-0.1203
		C329.6032,207.6431,328.9727,208.3016,328.3967,209.6949z"/>
	<path id="XMLID_7525_" class="st7" d="M243.0158,402.5376c-4.2152-9.4457-8.9242-14.817-9.3691-22.6849
		c-3.1159,3.8447-5.2641,7.804-4.9096,11.5542c1.1755,12.451-35.6604-30.2159-39.1782-50.7085
		c-0.6537,3.9119-0.66,12.1283,10.6989,28.2384c7.6834,10.8957,25.6988,41.9412,38.8159,69.8116
		c2.6154-16.8052,4.7057-29.7235,5.5894-34.573C243.9615,403.7616,243.3236,403.2271,243.0158,402.5376z"/>
	<path id="XMLID_7524_" class="st7" d="M277.7166,391.4069c0.3541-3.7502-1.794-7.7095-4.91-11.5542
		c-0.4445,7.8679-5.1535,13.2392-9.3695,22.6849c-0.3078,0.6895-0.9465,1.224-1.6491,1.6398
		c0.92,5.0448,3.1447,18.8237,5.9073,36.6154c12.7431-28.3826,30.8378-60.6921,38.7102-71.856
		c11.9382-16.9326,11.3234-25.1345,10.5958-28.7931C314.0556,360.4141,276.531,403.9693,277.7166,391.4069z"/>
	<path id="XMLID_7523_" class="st7" d="M195.5603,381.0035c0.0209,0.0291,0.0437,0.0583,0.0642,0.0874l0.1016-0.0766
		C195.7261,381.0143,195.6623,381.0106,195.5603,381.0035z"/>
	<path id="XMLID_7522_" class="st8" d="M263.4371,402.5376c4.216-9.4457,8.925-14.817,9.3695-22.6849
		c-6.924-8.5447-18.6934-16.484-19.5529-20.2502h-0.0538c-0.8595,3.7662-12.6288,11.7055-19.5532,20.2502
		c0.4449,7.8679,5.1539,13.2392,9.3691,22.6849c0.3078,0.6895,0.9458,1.224,1.6472,1.6379
		c-0.8838,4.8495-2.974,17.7678-5.5894,34.573c7.8052,16.5841,13.8772,32.045,15.0041,41.4668
		c1.0806-9.0333,6.5229-23.6224,13.6176-39.4225c-2.7626-17.7917-4.9873-31.5706-5.9073-36.6154
		C262.4906,403.7616,263.1293,403.2271,263.4371,402.5376z"/>
	<path id="XMLID_7521_" class="st9" d="M301.7704,317.4644c-0.8191-1.3862-2.0514-0.9376-4.2742,1.0376
		c-5.4262,4.8203-16.9109,18.99-43.8327,39.6048c-0.2551,0.1953-0.3616,0.4434-0.4366,0.7022
		c-0.0755-0.2589-0.1815-0.5069-0.437-0.7022c-26.7066-20.4508-38.2261-34.5637-43.7057-39.4953
		c-2.3073-2.0775-3.566-2.5609-4.4009-1.1471c-3.442,5.8232-6.9998,9.7557-9.8342,12.6027
		c0.0164,0.0052,0.0639,0.0183,0.0639,0.0183s-0.0605,0.0254-0.1498,0.0691c-1.0279,1.0305-1.9307,1.9113-2.7166,2.6812
		c-0.8191,1.2805-1.6103,3.1152-2.0525,5.7288c-0.0833,0.4904-0.2775,1.1908-0.4352,2.1339
		c3.5179,20.4926,40.3537,63.1596,39.1782,50.7085c-0.3545-3.7502,1.7937-7.7095,4.9096-11.5542
		c6.9244-8.5447,18.6938-16.484,19.5532-20.2502c0.0112-0.0512,0.0194-0.1005,0.0269-0.1494
		c0.0071,0.049,0.0153,0.0982,0.0269,0.1494c0.8595,3.7662,12.6289,11.7055,19.5529,20.2502
		c3.1159,3.8447,5.2641,7.804,4.91,11.5542c-1.1856,12.5623,36.3391-30.9928,39.2847-51.2632
		c-0.1322-0.6619-0.2667-1.1927-0.3325-1.5793c-0.3963-2.3383-1.0753-4.0124-1.7996-5.2675
		C311.9893,330.4153,306.7648,325.9158,301.7704,317.4644z"/>
	<path id="XMLID_7520_" class="st6" d="M401.3105,370.0458c-2.2561-3.1006-51.9983-20.2502-68.1584-26.1866
		c1.6416,1.8146,3.2067,3.8499,4.5088,6.1807c7.1239,12.7469,7.5108,20.5621,12.5456,24.3101
		c5.0347,3.7502-39.2701,6.6644-39.2701,6.6644l27.9082,21.0656c0,0-31.2655,35.7582-52.4107,51.1698
		c-6.5471,4.771-27.2303,23.8962-32.2669,32.1601c1.1598,5.539,3.1813,13.8521,3.6377,17.1694
		c0.1987,1.4519,0.3668,2.8362,0.5442,4.2369c38.5078-0.4576,74.9275-9.5551,107.4073-25.4863
		c0.9913-19.2708-2.3286-95.0589,34.1024-111.1802c0.7624-0.3373,1.6353,0.4471,2.59,2.1212
		c0.0037-0.0071,0.0112-0.0348,0.0153-0.04C402.1031,371.4521,401.7527,370.655,401.3105,370.0458z"/>
	<path id="XMLID_7519_" class="st10" d="M254.167,485.4099l-0.0026,0.0034c-5.8905-5.1378-27.3872-27.3924-33.9358-32.1634
		c-21.1452-15.4116-52.4103-51.1698-52.4103-51.1698l27.8063-20.9891c-0.0205-0.0291-0.0433-0.0583-0.0642-0.0874
		c-2.8466-0.1916-43.9642-3.033-39.1039-6.6536c5.0347-3.748,5.4221-11.5632,12.5456-24.3101
		c1.4112-2.5258,3.1324-4.6963,4.9257-6.6166c-16.8825,6.168-65.1732,22.8507-67.3976,25.9076
		c38.9578,2.0208,35.0889,88.7576,35.815,110.7111c33.9664,17.1388,72.3199,26.8508,112.9634,26.8508
		c1.0197,0,2.0237-0.0639,3.0405-0.0766c-0.1774-1.4007-0.3455-2.785-0.5442-4.2369
		C257.3483,499.262,255.3268,490.9489,254.167,485.4099z"/>
	<path id="XMLID_7518_" class="st11" d="M169.002,350.0399c-7.1235,12.7469-7.5108,20.5621-12.5456,24.3101
		c-4.8603,3.6205,36.2572,6.4619,39.1039,6.6536c0.102,0.0071,0.1658,0.0108,0.1658,0.0108l-0.1016,0.0766L167.8183,402.08
		c0,0,31.2651,35.7582,52.4103,51.1698c6.5486,4.771,28.0453,27.0256,33.9358,32.1634l0.0026-0.0034
		c5.0366-8.2639,25.7197-27.389,32.2669-32.1601c21.1452-15.4116,52.4107-51.1698,52.4107-51.1698l-27.9082-21.0656
		c0,0,44.3048-2.9142,39.2701-6.6644c-5.0347-3.748-5.4217-11.5632-12.5456-24.3101c-1.3021-2.3308-2.8672-4.3661-4.5088-6.1807
		c-1.623-1.791-3.3072-3.3397-4.9253-4.6836c-2.7574-2.2927-5.2805-4.0072-6.7178-5.2275
		c-6.1856-5.2487-9.7587-3.8626-9.7587-3.8626s1.6584,0.6839,3.1189,3.2115c0.7243,1.2551,1.4033,2.9292,1.7996,5.2675
		c0.0658,0.3866,0.2002,0.9174,0.3325,1.5793c0.7276,3.6587,1.3424,11.8605-10.5958,28.7931
		c-7.8724,11.1639-25.967,43.4734-38.7102,71.856c-7.0947,15.8001-12.537,30.3892-13.6176,39.4225
		c-1.1269-9.4218-7.1989-24.8827-15.0041-41.4668c-13.1171-27.8705-31.1325-58.916-38.8159-69.8116
		c-11.3589-16.1101-11.3525-24.3265-10.6989-28.2384c0.1576-0.9431,0.3519-1.6435,0.4352-2.1339
		c0.4422-2.6136,1.2334-4.4483,2.0525-5.7288c1.1374-1.7802,2.3188-2.4824,2.7166-2.6812c0.0893-0.0437,0.1498-0.0691,0.1498-0.0691
		s-0.0474-0.0131-0.0639-0.0183c-0.3276-0.1094-3.8088-1.1127-9.6952,3.8809c-1.1213,0.9521-2.9094,2.2034-4.9458,3.7902
		c-1.9745,1.5374-4.1726,3.4252-6.2804,5.685C172.1343,345.3435,170.4131,347.5141,169.002,350.0399z"/>
	<path id="XMLID_7517_" class="st11" d="M106.5301,369.3309c-2.2475-0.1169-9.5914,33.9564-17.0338,74.9749
		c15.9532,14.0381,33.6937,26.0701,52.8488,35.7362C141.6189,458.0884,145.4879,371.3517,106.5301,369.3309z"/>
	<path id="XMLID_7516_" class="st11" d="M399.8586,370.1497c-36.4309,16.1213-33.1111,91.9094-34.1024,111.1802
		c19.6593-9.641,37.844-21.7989,54.2014-36.0156c-6.2453-34.9633-12.8817-64.929-17.5089-73.0434
		C401.4939,370.5968,400.6209,369.8123,399.8586,370.1497z"/>
</g>
</svg>
