
<svg xmlns="http://www.w3.org/2000/svg" width="38.8214mm" height="37.3655mm" version="1.1" shape-rendering="geometricPrecision" text-rendering="geometricPrecision" image-rendering="optimizeQuality" fill-rule="evenodd" clip-rule="evenodd"
viewBox="0 0 1452.43 1397.96">
 <g id="Capa_x0020_1">
  <path fill="#01F9FD" d="M76.21 542.42c-47.21,24.98 -76.21,43.71 -76.21,116.56l0 201.72c0,136.77 109.67,116.55 192.77,116.55 0,81.97 -5.49,123.21 50.32,178.3 47.16,46.55 109.8,41.37 182.78,41.37l0 152.41c0,35.43 39.36,72 110.17,29.49l325.88 -176.21c36.25,-16.35 219.88,-3.24 276.09,-10.81 75.33,-10.14 121.65,-80.05 121.65,-165.24l0 -49.31c83.09,0 192.77,20.22 192.77,-116.55l0 -201.72c0,-72.42 -28,-91.05 -76.21,-116.56 0,-285.65 -261.71,-542.42 -546.9,-542.42l-206.21 0c-156.25,0 -301.14,83.24 -379.93,162.49 -81.48,81.95 -166.97,218.78 -166.97,379.93zm117.62 4.25l2.85 -78.45c9.02,-79.11 54.25,-128.68 146.46,-139.9l781.91 -1.61c62.2,4.11 110.66,32.67 126.85,118.82l3.21 96.33 69.04 3.21c-17.78,-265.96 -201.09,-471.8 -476.85,-494.52l-247.26 -1.6c-310.64,37.08 -475.14,282.87 -476.85,492.91l70.65 4.82z"/>
  <path fill="white" d="M587.55 1151.7c25.68,64.45 -69.51,33.09 -114.43,43.14l0.22 154.19c25.62,-0.97 263.65,-132.75 300.38,-155.04 -35.33,-16.69 -64.73,-27.64 -69.96,-73.62 -5.2,-45.64 21.73,-78.54 53.26,-89.84 34.91,-12.5 99.86,-9.17 125.43,10.11 41.96,31.64 29,47.87 38.23,105.25 343.24,0.84 288.31,43.72 288.31,-495.88 0,-50.95 5.56,-148.98 -1.69,-194.46 -8.99,-56.33 -50.31,-82.47 -113.32,-82.64 -131.52,-0.37 -263.13,0.09 -394.65,0.09 -84.94,0 -318.81,-11.63 -380.44,13.33 -70.26,28.45 -75.66,68.11 -75.48,120.19 0.37,102.48 -8.08,543.51 8.77,581.69 23.51,53.28 68.45,57.77 137.83,57.71 42.7,-0.04 168.91,-6.63 197.54,5.78z"/>
  <path fill="#373535" d="M195.72 926.44l0 -333.29c-173.49,-26.22 -143.61,39.39 -143.61,164.45 0,134.73 -28.89,193.29 143.61,168.84z"/>
  <path fill="#373535" d="M1256.71 926.44l83.65 1.54c42.86,0 59.95,-19.83 59.95,-62.79l0 -210.69c0,-34.64 -10.28,-58.65 -42.16,-62.55 -18.71,-2.3 -82.96,-1.59 -101.44,1.2l0 333.29z"/>
  <path fill="#373535" d="M485.92 704.02c-6.36,4.13 -17.57,0.14 -10.8,39.83 46.17,271.12 446.75,279.68 500.77,7.7 10.69,-53.83 -24.24,-67.88 -40.66,-40.42 -10.42,17.42 -18.23,163.93 -173.77,189.34 -106.06,17.33 -198.41,-43.97 -229.65,-132.36 -8.75,-24.75 -8.93,-88.15 -45.9,-64.1z"/>
  <path fill="#373535" d="M868.59 1145.9c7.45,-31.57 3.88,-63.39 -23.85,-71.8 -23.01,-6.97 -71.47,-3.98 -84.32,9.17 -18.89,19.34 -9.54,52.53 14.57,60.19 14.85,4.73 73.17,2.44 93.6,2.44z"/>
  <path fill="#373535" d="M825.76 568.25c-68.88,17.64 -38.55,106.35 19.94,93.86 61.85,-13.21 39.63,-109.11 -19.94,-93.86z"/>
  <path fill="#373535" d="M607.7 569.15c-71.97,21.03 -32.77,110.92 26.06,91.63 52.98,-17.37 34.06,-109.19 -26.06,-91.63z"/>
 </g>
</svg>
