
<svg xmlns="http://www.w3.org/2000/svg" xml:space="preserve" width="32.4459mm" height="35.3643mm" version="1.1" shape-rendering="geometricPrecision" text-rendering="geometricPrecision" image-rendering="optimizeQuality" fill-rule="evenodd" clip-rule="evenodd"
viewBox="0 0 988.48 1077.39">
 <g id="Capa_x0020_1">
  <path fill="#01F9FD" d="M272.61 90.87c-19.43,0 -51.24,14.73 -64.2,22.23 -57.44,33.27 -99.81,96.73 -99.81,166.16 -68.87,36.44 -108.6,95.68 -108.6,179.52 0,19.47 5.9,44.89 11.39,59.53 4.87,12.98 16.43,39.63 26.29,46.85 -9.58,14.31 -18.08,22.78 -25.36,41.13 -34.03,85.81 4.74,168.01 87.88,202.19 4.18,1.72 5.3,1.05 8.02,5.28 0.09,0.15 10.31,43.11 17.14,58.22 3.5,7.74 5.31,10.1 9.08,17.52 21.04,41.44 66.67,76.65 112.37,91.53 53.25,17.34 7.72,-8.58 41.97,33.38 13.21,16.18 22.5,25.59 40.21,37.36 77.11,51.23 207.36,27.03 207.36,-85.46l0 -219.42 48.76 0c0,87.75 -10.27,61.03 63.03,105.42l51.78 30.22c6.81,4.08 11.92,6.46 18.17,10.64 0,40.67 16.52,66.49 59.84,66.49 32.65,0 64.15,-39.44 47.32,-78.35 -6.23,-14.41 -20.41,-27.6 -37.19,-31.58 -18.8,-4.46 -40.82,-0.15 -50.03,12.41 -9.12,-6.11 -19.11,-11.24 -29.5,-17.05l-72.89 -42.35c-17.03,-9.89 -12.86,-1.66 -12.86,-55.85l48.76 0c0,38.36 -5.73,55.41 22.16,55.41 4.81,0 9.6,-4.38 11.81,-8.13 5.54,-9.4 3.7,-34.31 3.7,-47.27 65.03,0 59.84,-49.26 59.84,-95.3 21.65,0 17.65,-1.46 25.93,13.97l29.48 50.31c-1.67,6.24 -30.7,44.07 2.67,77.12 54.93,54.39 135.3,-26.47 76.64,-81.07 -12.15,-11.3 -25.28,-13.78 -48.28,-13.78l-39.94 -70.88c-10.48,-16.66 -22.33,-13.34 -46.5,-13.34l0 -57.63 110.82 0c12.84,55.09 108.6,50.53 108.6,-17.73 0,-28.69 -23.5,-55.41 -50.97,-55.41 -21.46,0 -35.64,3.12 -50.46,22.68 -3.74,4.94 -5.64,8.48 -7.16,15l-110.82 0 0 -57.63c43.36,0 38.03,5.07 73.14,-59.84 3.82,-7.06 11.29,-16.88 13.3,-24.38 23,0 36.13,-2.48 48.28,-13.78 47.12,-43.85 4.52,-99.25 -34.98,-99.25 -35.71,0 -79.8,40.11 -44.33,93.08 -2.61,9.76 -22.24,39.54 -28.7,51.09 -9.28,16.61 -4.06,15.4 -26.71,15.4 0,-46.05 5.19,-95.3 -59.84,-95.3 0,-12.97 1.84,-37.87 -3.7,-47.27 -8.52,-14.44 -33.98,-9.75 -33.98,9.6l0 37.68 -48.76 0c0,-52.84 -4.17,-46.06 11.46,-55.04 5.39,-3.1 10.44,-6.38 15.25,-9.13l88.54 -51.08c15.44,21.07 69.53,21.69 87.21,-19.17 7.41,-17.12 5.65,-38.43 -4.21,-52.75 -23.2,-33.72 -68.73,-32.89 -90.07,-6.07 -11.37,14.29 -12.88,22.06 -12.88,46.96l-105.11 61.11c-34.35,20.3 -27.87,10.06 -27.87,85.16l-48.76 0 0 -219.42c0,-61.35 -48.07,-110.82 -108.6,-110.82 -41.5,0 -70.36,3.89 -103.88,29.1 -17.57,13.21 -45.99,39.14 -51.26,61.77z"/>
  <path fill="#FD636E" d="M259.28 130.53c-29.18,5.51 -60.47,32.28 -74.39,47.77 -19.05,21.19 -33.05,47.13 -39.13,82.78 -3.01,17.66 -2.77,37.86 0.75,55.58 2.34,11.78 13.79,41.41 12.39,48.27 -3.45,16.87 -25.81,18.33 -33.49,1.68 -6.75,-14.64 -10.64,-30.74 -14.04,-47.45 -30.43,12.73 -61.07,57.24 -70.15,92.15 -11.97,46.03 -1.99,102.12 23.05,130.3 8.84,-3.52 14.06,-8.46 23.41,-12.84 13,-6.08 44.01,-16.44 58.5,-13.05 9.04,2.11 15.86,12.06 11.5,23.08 -8.41,21.22 -41.58,-1.76 -93.23,50.89 -36.21,36.92 -40.35,106.25 2.02,155.05 5.65,6.51 31.05,28.13 42.97,27.38 2.43,-15.35 9.91,-62.25 22.76,-70.45 6.85,-4.37 16.19,-3.69 21.98,1.83 16.91,16.11 -16.62,39.03 -9.54,104.97 6.89,64.15 59.97,127.62 114.63,138.18 -3.77,-41.65 -3.1,-65.58 13.79,-99.44 9.37,-18.79 38.65,-60.04 57.46,-62.94 19.51,-3 27.99,18.83 11.76,32.26 -36.75,30.41 -59.53,72.71 -47.5,127.61 12.23,55.82 68.48,107.58 140.67,96.34 82.14,-12.78 64.77,-93.41 64.77,-173.77 -6.35,2.05 -10.39,6.98 -16.94,11.12 -22.19,14.04 -47.67,21.51 -75.58,17.9 -23.72,-3.07 -24.42,-26.49 -10.57,-33.2 8.53,-4.13 33.21,1.32 51.64,-5.97 27.68,-10.95 49.41,-35.55 51.3,-72.16 2.03,-39.15 0.14,-83.64 0.14,-123.37 -15.42,-2.06 -38.5,-0.76 -54.78,-0.77 -64.78,-0.05 -46.56,48.81 -54.44,61.01 -9.16,14.17 -29.84,9.28 -32.22,-9.8 -4.74,-38.05 16.82,-63.48 37.83,-75.58 33.91,-19.53 65.18,-6.35 103.52,-11.63l0.1 -171.39c-35.39,-4.86 -73.11,6.83 -102.58,-10.64 -21.88,-12.97 -43.68,-37.84 -38.86,-76.57 2.22,-17.89 20.81,-24.17 31.28,-11.09 8.82,11.02 -9.25,62.18 53.14,62.3 16.8,0.03 41.13,1.33 57.03,-0.76 0,-39.71 1.39,-81.92 -0.06,-121.32 -1.4,-37.89 -22.51,-61.95 -49.88,-73.55 -21.06,-8.93 -40.56,-1.96 -51.57,-6.02 -14.61,-5.4 -15.75,-29.72 6.92,-33.54 52.66,-8.89 86.44,26.12 94.59,28.8 0,-79.66 17.19,-159.68 -62.85,-173.46 -124.52,-21.44 -201.23,139.5 -96.33,222.6 16.77,13.29 10.53,34.56 -8.5,33.46 -19.33,-1.12 -49.72,-43.57 -58.75,-61.69 -17.38,-34.86 -18.46,-57.92 -14.54,-100.84z"/>
  <path fill="white" d="M534.95 415.92c27.11,4.63 96.13,-1.29 127.74,0.95 15.91,1.13 19.74,7.66 19.74,24.17l0 195.04c0,46.91 -78.9,13.41 -147.47,25.12l0 47.51c11.03,2.06 179.98,4.11 194.2,-1.72 6.48,-16.26 2.81,-281.53 2.81,-321.36 0,-6.34 -1.11,-11.27 -2.8,-15.51 -10.92,-4.53 -177.01,-5.75 -194.21,-1.72l0 47.51z"/>
  <polygon fill="#01F9FD" points="534.95,624.1 644.95,625.05 647.13,624.97 647.15,452.18 535.07,452.23 "/>
  <path fill="#01F9FD" d="M558.52 988.48c0,78.81 110.82,70.41 110.82,6.65l0 -11.08c0,-64.85 -110.82,-69.82 -110.82,4.43z"/>
  <path fill="#01F9FD" d="M558.52 82c0,87.45 110.82,72.68 110.82,11.08l0 -11.08c0,-27.19 -27.27,-50.97 -55.41,-50.97 -27.38,0 -55.41,23.98 -55.41,50.97z"/>
  <path fill="#01F9FD" d="M248.67 436.47c-15.49,7.91 -8.88,22.91 -3.68,27.72 8.4,7.77 52.05,25.93 45.08,85.29 -2.96,25.23 -18,44.21 -31.78,54.59 -9.07,6.83 -19.41,8.7 -18.86,23.02 1.78,46.08 94.13,-12.62 85.99,-99.37 -4.89,-52.11 -53.12,-103.32 -76.74,-91.25z"/>
  <path fill="white" d="M862.91 735.54c-9.91,3.06 -17.89,8.8 -14.77,23.2 2.24,10.34 12,19.02 26.59,14.51 21.85,-6.74 14.5,-45.86 -11.82,-37.71z"/>
  <path fill="white" d="M610.55 970.54c-30.34,8.03 -14.69,44.64 8.52,38.69 25.29,-6.49 16.21,-45.23 -8.52,-38.69z"/>
  <path fill="white" d="M858.41 305.8c-23.56,12.89 -5.43,45.73 18.6,34.98 21.51,-9.63 7.95,-49.51 -18.6,-34.98z"/>
  <path fill="white" d="M925.05 520.74c-27.2,12.4 -6.5,47.29 16.93,35.7 20.67,-10.23 8.23,-47.17 -16.93,-35.7z"/>
  <path fill="white" d="M765.44 886.47c-10.55,5.01 -15.65,13.91 -9.58,26.4 3.92,8.06 14.76,14.34 26.59,9.34 21.6,-9.12 9.53,-48.35 -17.01,-35.74z"/>
  <path fill="white" d="M767.63 154.92c-27.35,11.4 -11.05,45.94 13.61,37.02 22.43,-8.11 11.46,-47.47 -13.61,-37.02z"/>
  <path fill="white" d="M609.99 68.25c-27.86,7.47 -16.04,44.64 9.01,38.76 23.92,-5.61 16.68,-45.64 -9.01,-38.76z"/>
 </g>
</svg>
