
<svg xmlns="http://www.w3.org/2000/svg" width="36.8607mm" height="34.1244mm" version="1.1" shape-rendering="geometricPrecision" text-rendering="geometricPrecision" image-rendering="optimizeQuality" fill-rule="evenodd" clip-rule="evenodd"
viewBox="0 0 1278.66 1183.74">
 <g id="Capa_x0020_1">
  <path fill="white" d="M504.87 961.67c4.6,46.43 -4.99,115.03 -28.93,140.65 -22.8,24.41 -107.96,52.77 -86.74,75.12 8.1,8.52 37.95,4.91 57.31,4.9 80.16,-0.01 425.3,4.37 449.37,-2.24 12.92,-37.29 -49.64,-38.81 -87.39,-79.45 -25.93,-27.92 -30.36,-91.54 -29.46,-138.57 82.92,-5.99 284.96,-0.52 389.41,-0.56 44.98,-0.02 76.46,-6.93 95.42,-37.26 21.46,-34.31 13.27,-195.15 13.27,-247.92l0 -525.34c0,-101.81 -1.24,-151.23 -112.06,-150.99l-1050.76 0.05c-109.85,0.14 -112.35,48.19 -112.35,147.55l0 525.35c0,56.72 -9.53,211.15 13.52,251.31 17.18,29.94 48.29,36.92 92.09,37.34l397.3 0.06z"/>
  <path fill="#373535" d="M76.46 75.51c-11.08,34.95 -4.66,277.73 -4.66,336.47 0,46 -8.52,320.99 5.81,338.24 17.25,16.1 141.74,7.15 175.7,7.15l738.87 0.17c55.54,0.07 133.69,4.93 186.5,0 36.36,-3.39 28.89,-31.41 28.76,-64.24l-0.48 -552.46c-0.13,-89.36 21.46,-70.14 -208.01,-70.14l-555.85 0.13c-61.02,0 -331.43,-6.61 -366.66,4.69z"/>
  <path fill="#EE3338" d="M202.88 317.05c34.32,20.24 67.37,49.55 101.27,69.97 24.3,-11.99 41.04,-32.78 85.67,-19.86 62.8,18.18 81.9,94.78 41.1,141.15 -23.19,26.35 -42.78,26.71 -86.09,28.32 -13.73,17.28 -64.36,90.22 -70.27,107.97 46.63,11.68 69.42,25.75 128.42,15.19 75.83,-13.58 136.25,-65.15 162.47,-135.8 14.73,-39.68 17.25,-88.51 5.38,-130.91 -33.44,-119.48 -161.46,-185.96 -281.05,-141.11 -32.95,12.36 -75.62,42.1 -86.9,65.09z"/>
  <polygon fill="#01F9FD" points="830.05,191.67 830.06,635.67 830.26,648.88 944.89,650.29 945.13,628.89 945.09,188.28 944.93,170.22 830.13,170.03 "/>
  <path fill="#96BDD9" d="M1010.77 651.09l114.85 0.41c3.85,-12.53 4.96,-375.15 1.08,-401.15 -15.77,-4.49 -100.08,-4.34 -116.44,-0.18 -4.38,22.18 -3.86,384.96 0.52,400.92z"/>
  <polygon fill="#01F9FD" points="1012.28,648.16 1123.35,648.15 1124.35,252.23 1012.75,251.64 "/>
  <path fill="#01F9FD" d="M651.92 649.91c24.29,0.68 96.02,3.62 115.08,-1.91l-0.16 -245.3c-20.13,-5.72 -89.5,-2.62 -114.65,-2.14l-0.27 249.36z"/>
  <path fill="#01F9FD" d="M246.54 623.98l68 -100.15c-7.15,-14.85 -22.35,-21.09 -30.55,-44.11 -10.96,-30.77 -1,-41.36 1.06,-68.91 -21.5,-9.49 -82.75,-60.38 -102.09,-68.7 -78.57,133.32 19.56,271.44 63.58,281.87z"/>
  <path fill="#373535" d="M626.75 807.68c-74.19,22.24 -39.66,127.21 28.03,107.63 65.81,-19.04 40.43,-128.15 -28.03,-107.63z"/>
 </g>
</svg>
