<?xml version="1.0" encoding="UTF-8" standalone="no"?> <svg width="64" height="64" viewBox="0 0 64 64" fill="none" xmlns="http://www.w3.org/2000/svg">
<path d="M51.5601 10.9404H36.8901C36.4923 10.9404 36.1108 11.0985 35.8295 11.3798C35.5482 11.6611 35.3901 12.0426 35.3901 12.4404V27.1104C35.3901 27.5083 35.5482 27.8898 35.8295 28.1711C36.1108 28.4524 36.4923 28.6104 36.8901 28.6104H51.5601C51.958 28.6104 52.3395 28.4524 52.6208 28.1711C52.9021 27.8898 53.0601 27.5083 53.0601 27.1104V12.4404C53.0601 12.0426 52.9021 11.6611 52.6208 11.3798C52.3395 11.0985 51.958 10.9404 51.5601 10.9404V10.9404ZM50.0601 25.6104H38.3901V13.9404H50.0601V25.6104Z" fill="#FF931E"/>
<path d="M27.1099 35.3896H12.4399C12.0421 35.3896 11.6606 35.5477 11.3793 35.829C11.098 36.1103 10.9399 36.4918 10.9399 36.8896V51.5597C10.9399 51.9575 11.098 52.339 11.3793 52.6203C11.6606 52.9016 12.0421 53.0597 12.4399 53.0597H27.1099C27.5078 53.0597 27.8893 52.9016 28.1706 52.6203C28.4519 52.339 28.6099 51.9575 28.6099 51.5597V36.8896C28.6099 36.4918 28.4519 36.1103 28.1706 35.829C27.8893 35.5477 27.5078 35.3896 27.1099 35.3896V35.3896ZM25.6099 50.0597H13.9399V38.3896H25.6099V50.0597Z" fill="#FF931E"/>
<path d="M29.56 8.5H10C9.60218 8.5 9.22064 8.65804 8.93934 8.93934C8.65804 9.22064 8.5 9.60218 8.5 10V29.56C8.5 29.9578 8.65804 30.3394 8.93934 30.6207C9.22064 30.902 9.60218 31.06 10 31.06H29.56C29.9578 31.06 30.3394 30.902 30.6207 30.6207C30.902 30.3394 31.06 29.9578 31.06 29.56V10C31.06 9.60218 30.902 9.22064 30.6207 8.93934C30.3394 8.65804 29.9578 8.5 29.56 8.5V8.5ZM28.06 28.06H11.5V11.5H28.06V28.06Z" fill="black"/>
<path d="M53.9999 32.9404H34.4399C34.0421 32.9404 33.6606 33.0985 33.3793 33.3798C33.098 33.6611 32.9399 34.0426 32.9399 34.4404V54.0004C32.9399 54.3983 33.098 54.7798 33.3793 55.0611C33.6606 55.3424 34.0421 55.5004 34.4399 55.5004H53.9999C54.3978 55.5004 54.7793 55.3424 55.0606 55.0611C55.3419 54.7798 55.4999 54.3983 55.4999 54.0004V34.4404C55.4999 34.0426 55.3419 33.6611 55.0606 33.3798C54.7793 33.0985 54.3978 32.9404 53.9999 32.9404ZM52.4999 52.5004H35.9399V35.9404H52.4999V52.5004Z" fill="black"/>
</svg>
