<?xml version="1.0" encoding="UTF-8"?>
<!DOCTYPE svg PUBLIC "-//W3C//DTD SVG 1.1//EN" "http://www.w3.org/Graphics/SVG/1.1/DTD/svg11.dtd">
<!-- Creator: CorelDRAW -->
<svg xmlns="http://www.w3.org/2000/svg" xml:space="preserve" width="1.70666in" height="1.70666in" version="1.1" style="shape-rendering:geometricPrecision; text-rendering:geometricPrecision; image-rendering:optimizeQuality; fill-rule:evenodd; clip-rule:evenodd"
viewBox="0 0 1707 1707"
 xmlns:xlink="http://www.w3.org/1999/xlink">
 <defs>
  <style type="text/css">
   <![CDATA[
    .fil0 {fill:black}
   ]]>
  </style>
 </defs>
 <g id="Layer_x0020_1">
  <metadata id="CorelCorpID_0Corel-Layer"/>
  <g>
   <path class="fil0" d="M853 1523l-215 0c-22,0 -40,-18 -40,-40l0 -83c0,-78 -119,-78 -119,0l0 83c0,22 -18,40 -40,40l-216 0c-22,0 -40,-18 -40,-40l0 -805 -43 0c-77,0 -140,-63 -140,-140 0,-77 63,-139 140,-139l43 0 0 -176c0,-22 18,-40 40,-40l176 0 0 -43c0,-77 62,-140 139,-140 77,0 140,63 140,140l0 43 391 0c22,0 40,18 40,40l0 84c0,78 119,78 119,0l0 -84c0,-22 18,-40 40,-40l215 0c23,0 40,18 40,40l0 806 44 0c77,0 139,63 139,139 0,77 -62,140 -139,140l-44 0 0 175c0,22 -17,40 -40,40l-175 0 0 44c0,77 -63,139 -140,139 -76,0 -139,-62 -139,-139l0 -44 -176 0zm-590 -630l0 550 136 0 0 -43c0,-77 62,-140 139,-140 77,0 140,63 140,140l0 43 135 0 0 -175c0,-22 18,-40 40,-40l84 0c78,0 78,-119 0,-119l-84 0c-22,0 -40,-18 -40,-40l0 -176 -135 0 0 44c0,77 -63,139 -140,139 -77,0 -139,-62 -139,-139l0 -44 -136 0zm550 -80l0 -135 -43 0c-77,0 -140,-63 -140,-140 0,-77 63,-139 140,-139l43 0 0 -136 -175 0c-22,0 -40,-18 -40,-40l0 -83c0,-78 -119,-79 -119,0l0 83c0,22 -18,40 -40,40l-176 0 0 176c0,22 -18,40 -40,40l-83 0c-78,0 -79,119 0,119l83 0c22,0 40,18 40,40l0 175 176 0c22,0 40,18 40,40l0 84c0,78 119,78 119,0l0 -84c0,-22 18,-40 40,-40l175 0zm75 -354l-6 8 -1 1 -1 1 0 0c-1,1 -1,1 -2,1l0 0 -1 1 -1 1 0 0 -1 1 -1 0 -1 1 -1 0 -1 1 -3 1 -2 1 -1 0c-14,4 -77,2 -95,2 -78,0 -78,119 0,119l83 0c22,0 40,18 40,40l0 175 176 0c22,0 40,18 40,40l0 84c0,78 119,78 119,0l0 -84c0,-22 18,-40 40,-40l175 0 0 -550 -135 0 0 44c0,77 -63,139 -140,139 -76,0 -139,-62 -139,-139l0 -44 -136 0c0,39 3,156 -1,185l-4 11zm5 434l0 136 44 0c77,0 139,63 139,139 0,77 -62,140 -139,140l-44 0 0 135 176 0c22,0 40,18 40,40l0 84c0,78 119,78 119,0l0 -84c0,-22 18,-40 40,-40l175 0 0 -175c0,-22 18,-40 40,-40l84 0c78,0 78,-119 0,-119l-84 0c-22,0 -40,-18 -40,-40l0 -176 -135 0 0 44c0,77 -63,139 -140,139 -76,0 -139,-62 -139,-139l0 -44 -136 0zm-10 -427c0,0 -1,1 -1,1l1 -1zm-3 3c-1,1 -1,1 -2,1l2 -1z"/>
  </g>
 </g>
</svg>
